<svg width="20" height="20" viewBox="0 0 20 20" fill="none" xmlns="http://www.w3.org/2000/svg">
<path fill-rule="evenodd" clip-rule="evenodd" d="M10.0013 3.54297C10.3465 3.54297 10.6263 3.82279 10.6263 4.16797V9.3763H15.8346C16.1798 9.3763 16.4596 9.65612 16.4596 10.0013C16.4596 10.3465 16.1798 10.6263 15.8346 10.6263H10.6263V15.8346C10.6263 16.1798 10.3465 16.4596 10.0013 16.4596C9.65612 16.4596 9.3763 16.1798 9.3763 15.8346V10.6263H4.16797C3.82279 10.6263 3.54297 10.3465 3.54297 10.0013C3.54297 9.65612 3.82279 9.3763 4.16797 9.3763H9.3763V4.16797C9.3763 3.82279 9.65612 3.54297 10.0013 3.54297Z" fill="#1F1F1F"/>
</svg>
